<svg t="1623338422471" class="icon" viewBox="0 0 1024 1024" version="1.1" xmlns="http://www.w3.org/2000/svg" p-id="2394" width="64" height="64"><path d="M390.4 966.4c-2.133333 0-6.4-2.133333-8.533333-4.266667-76.8-96-121.6-262.4-121.6-448s44.8-354.133333 121.6-448c2.133333-6.4 10.666667-6.4 14.933333-2.133333 4.266667 4.266667 4.266667 10.666667 2.133333 14.933333-72.533333 89.6-117.333333 256-117.333333 435.2 0 179.2 44.8 345.6 117.333333 435.2 4.266667 4.266667 2.133333 10.666667-2.133333 14.933334-2.133333 2.133333-4.266667 2.133333-6.4 2.133333z" fill="#108EE9" p-id="2395"></path><path d="M970.666667 524.8h-917.333334c-6.4 0-10.666667-4.266667-10.666666-10.666667s4.266667-10.666667 10.666666-10.666666h917.333334c6.4 0 10.666667 4.266667 10.666666 10.666666s-4.266667 10.666667-10.666666 10.666667z" fill="#108EE9" p-id="2396"></path><path d="M512 983.466667c-6.4 0-10.666667-4.266667-10.666667-10.666667v-917.333333c0-6.4 4.266667-10.666667 10.666667-10.666667s10.666667 4.266667 10.666667 10.666667v917.333333c0 6.4-4.266667 10.666667-10.666667 10.666667z" fill="#108EE9" p-id="2397"></path><path d="M915.2 334.933333H106.666667c-6.4 0-10.666667-4.266667-10.666667-10.666666s4.266667-10.666667 10.666667-10.666667h808.533333c6.4 0 10.666667 4.266667 10.666667 10.666667s-4.266667 10.666667-10.666667 10.666666z" fill="#108EE9" p-id="2398"></path><path d="M755.2 524.8c-6.4 0-10.666667-4.266667-10.666667-10.666667 0-179.2-44.8-345.6-117.333333-435.2-4.266667-4.266667-2.133333-10.666667 2.133333-14.933333 4.266667-4.266667 10.666667-2.133333 14.933334 2.133333 76.8 96 121.6 262.4 121.6 448 0 6.4-4.266667 10.666667-10.666667 10.666667zM590.933333 712.533333H106.666667c-6.4 0-10.666667-4.266667-10.666667-10.666666s4.266667-10.666667 10.666667-10.666667h484.266666c6.4 0 10.666667 4.266667 10.666667 10.666667s-4.266667 10.666667-10.666667 10.666666z" fill="#108EE9" p-id="2399"></path><path d="M896 928h-209.066667c-17.066667 0-29.866667-14.933333-29.866666-32v-147.2c0-17.066667 12.8-32 29.866666-32H896c17.066667 0 29.866667 14.933333 29.866667 32V896c0 19.2-14.933333 32-29.866667 32z m-211.2-189.866667c-4.266667 0-8.533333 4.266667-8.533333 10.666667V896c0 6.4 4.266667 10.666667 8.533333 10.666667H896c4.266667 0 8.533333-4.266667 8.533333-10.666667v-147.2c0-6.4-4.266667-10.666667-8.533333-10.666667h-211.2z" fill="#ED1E79" p-id="2400"></path><path d="M885.333333 738.133333c-6.4 0-10.666667-4.266667-10.666666-10.666666v-38.4c0-46.933333-38.4-85.333333-85.333334-85.333334s-85.333333 38.4-85.333333 85.333334v38.4c0 6.4-4.266667 10.666667-10.666667 10.666666s-10.666667-4.266667-10.666666-10.666666v-38.4c0-57.6 46.933333-106.666667 106.666666-106.666667s106.666667 46.933333 106.666667 106.666667v38.4c0 6.4-4.266667 10.666667-10.666667 10.666666z" fill="#ED1E79" p-id="2401"></path><path d="M512 983.466667c-258.133333 0-469.333333-211.2-469.333333-469.333334s211.2-469.333333 469.333333-469.333333 469.333333 211.2 469.333333 469.333333c0 25.6-2.133333 51.2-6.4 76.8 0 6.4-6.4 10.666667-12.8 8.533334-6.4 0-10.666667-6.4-8.533333-12.8 4.266667-23.466667 6.4-49.066667 6.4-74.666667 0-247.466667-200.533333-448-448-448S64 264.533333 64 512s200.533333 448 448 448c25.6 0 51.2-2.133333 76.8-6.4 6.4 0 10.666667 2.133333 12.8 8.533333 0 6.4-2.133333 10.666667-8.533333 12.8-27.733333 6.4-53.333333 8.533333-81.066667 8.533334z" fill="#108EE9" p-id="2402"></path></svg>